<mxfile host="app.diagrams.net" agent="Mozilla/5.0 (Windows NT 10.0; Win64; x64) AppleWebKit/537.36 (KHTML, like Gecko) Chrome/129.0.0.0 Safari/537.36 Edg/129.0.0.0" version="24.7.17">
  <diagram name="第 1 页" id="7xdc4D-riL1cUkIEIP44">
    <mxGraphModel dx="782" dy="517" grid="1" gridSize="10" guides="1" tooltips="1" connect="1" arrows="1" fold="1" page="1" pageScale="1" pageWidth="827" pageHeight="1169" math="0" shadow="0">
      <root>
        <mxCell id="0" />
        <mxCell id="1" parent="0" />
        <mxCell id="BWtPWIOGxhY9mBRl1_k8-1" value="User&lt;span style=&quot;background-color: initial;&quot;&gt;s&lt;/span&gt;" style="shape=umlActor;verticalLabelPosition=bottom;verticalAlign=top;html=1;outlineConnect=0;" vertex="1" parent="1">
          <mxGeometry x="90" y="439" width="30" height="60" as="geometry" />
        </mxCell>
        <mxCell id="BWtPWIOGxhY9mBRl1_k8-2" value="Uploader" style="shape=umlActor;verticalLabelPosition=bottom;verticalAlign=top;html=1;outlineConnect=0;" vertex="1" parent="1">
          <mxGeometry x="90" y="653" width="30" height="60" as="geometry" />
        </mxCell>
        <mxCell id="BWtPWIOGxhY9mBRl1_k8-3" value="VIP" style="shape=umlActor;verticalLabelPosition=bottom;verticalAlign=top;html=1;outlineConnect=0;" vertex="1" parent="1">
          <mxGeometry x="90" y="280" width="30" height="60" as="geometry" />
        </mxCell>
        <mxCell id="BWtPWIOGxhY9mBRl1_k8-4" value="Administrator" style="shape=umlActor;verticalLabelPosition=bottom;verticalAlign=top;html=1;outlineConnect=0;" vertex="1" parent="1">
          <mxGeometry x="812" y="653" width="30" height="60" as="geometry" />
        </mxCell>
        <mxCell id="BWtPWIOGxhY9mBRl1_k8-5" value="Record dietary information" style="ellipse;whiteSpace=wrap;html=1;" vertex="1" parent="1">
          <mxGeometry x="173" y="420" width="120" height="40" as="geometry" />
        </mxCell>
        <mxCell id="BWtPWIOGxhY9mBRl1_k8-6" value="Edit dietary records" style="ellipse;whiteSpace=wrap;html=1;" vertex="1" parent="1">
          <mxGeometry x="425" y="380" width="130" height="40" as="geometry" />
        </mxCell>
        <mxCell id="BWtPWIOGxhY9mBRl1_k8-7" value="AI analysis records" style="ellipse;whiteSpace=wrap;html=1;" vertex="1" parent="1">
          <mxGeometry x="173" y="290" width="120" height="40" as="geometry" />
        </mxCell>
        <mxCell id="BWtPWIOGxhY9mBRl1_k8-8" value="Implementation&lt;div&gt;&amp;nbsp;of&lt;span style=&quot;background-color: initial;&quot;&gt;&amp;nbsp;the&amp;nbsp;&lt;/span&gt;&lt;span style=&quot;background-color: initial;&quot;&gt;diet plan&lt;/span&gt;&lt;/div&gt;" style="ellipse;whiteSpace=wrap;html=1;" vertex="1" parent="1">
          <mxGeometry x="173" y="519" width="120" height="40" as="geometry" />
        </mxCell>
        <mxCell id="BWtPWIOGxhY9mBRl1_k8-9" value="Publish the diet plans" style="ellipse;whiteSpace=wrap;html=1;" vertex="1" parent="1">
          <mxGeometry x="173" y="663" width="120" height="40" as="geometry" />
        </mxCell>
        <mxCell id="BWtPWIOGxhY9mBRl1_k8-10" value="Edit the diet plans" style="ellipse;whiteSpace=wrap;html=1;" vertex="1" parent="1">
          <mxGeometry x="425" y="628" width="125" height="40" as="geometry" />
        </mxCell>
        <mxCell id="BWtPWIOGxhY9mBRl1_k8-11" value="Delete the diet plans" style="ellipse;whiteSpace=wrap;html=1;" vertex="1" parent="1">
          <mxGeometry x="425" y="713" width="125" height="40" as="geometry" />
        </mxCell>
        <mxCell id="BWtPWIOGxhY9mBRl1_k8-12" value="Manage the diet plans" style="ellipse;whiteSpace=wrap;html=1;" vertex="1" parent="1">
          <mxGeometry x="632" y="663" width="120" height="40" as="geometry" />
        </mxCell>
        <mxCell id="BWtPWIOGxhY9mBRl1_k8-13" value="&amp;lt;&amp;lt;include&amp;gt;&amp;gt;" style="html=1;verticalAlign=bottom;endArrow=open;curved=0;rounded=0;endSize=10;endFill=0;exitX=1;exitY=0.5;exitDx=0;exitDy=0;entryX=0;entryY=0.5;entryDx=0;entryDy=0;dashed=1;" edge="1" parent="1" source="BWtPWIOGxhY9mBRl1_k8-5" target="BWtPWIOGxhY9mBRl1_k8-6">
          <mxGeometry x="-0.1765" y="9" width="80" relative="1" as="geometry">
            <mxPoint x="165" y="810" as="sourcePoint" />
            <mxPoint x="245" y="810" as="targetPoint" />
            <mxPoint as="offset" />
          </mxGeometry>
        </mxCell>
        <mxCell id="BWtPWIOGxhY9mBRl1_k8-14" value="Setup completion status" style="ellipse;whiteSpace=wrap;html=1;" vertex="1" parent="1">
          <mxGeometry x="425" y="510" width="130" height="40" as="geometry" />
        </mxCell>
        <mxCell id="BWtPWIOGxhY9mBRl1_k8-15" value="Delete dietary records" style="ellipse;whiteSpace=wrap;html=1;" vertex="1" parent="1">
          <mxGeometry x="425" y="449" width="130" height="40" as="geometry" />
        </mxCell>
        <mxCell id="BWtPWIOGxhY9mBRl1_k8-16" value="" style="endArrow=none;endFill=0;endSize=15;html=1;rounded=0;entryX=0;entryY=0.5;entryDx=0;entryDy=0;" edge="1" parent="1" source="BWtPWIOGxhY9mBRl1_k8-1" target="BWtPWIOGxhY9mBRl1_k8-5">
          <mxGeometry width="160" relative="1" as="geometry">
            <mxPoint x="270" y="580" as="sourcePoint" />
            <mxPoint x="430" y="580" as="targetPoint" />
          </mxGeometry>
        </mxCell>
        <mxCell id="BWtPWIOGxhY9mBRl1_k8-17" value="" style="endArrow=none;endFill=0;endSize=15;html=1;rounded=0;entryX=0;entryY=0.5;entryDx=0;entryDy=0;targetPerimeterSpacing=1;" edge="1" parent="1" source="BWtPWIOGxhY9mBRl1_k8-1" target="BWtPWIOGxhY9mBRl1_k8-8">
          <mxGeometry width="160" relative="1" as="geometry">
            <mxPoint x="270" y="580" as="sourcePoint" />
            <mxPoint x="430" y="580" as="targetPoint" />
          </mxGeometry>
        </mxCell>
        <mxCell id="BWtPWIOGxhY9mBRl1_k8-18" value="&amp;lt;&amp;lt;include&amp;gt;&amp;gt;" style="html=1;verticalAlign=bottom;endArrow=open;curved=0;rounded=0;exitX=1;exitY=0.5;exitDx=0;exitDy=0;entryX=0;entryY=0.5;entryDx=0;entryDy=0;endFill=0;endSize=10;dashed=1;" edge="1" parent="1" source="BWtPWIOGxhY9mBRl1_k8-5" target="BWtPWIOGxhY9mBRl1_k8-15">
          <mxGeometry x="0.0954" y="-25" width="80" relative="1" as="geometry">
            <mxPoint x="310" y="490" as="sourcePoint" />
            <mxPoint x="390" y="490" as="targetPoint" />
            <mxPoint as="offset" />
          </mxGeometry>
        </mxCell>
        <mxCell id="BWtPWIOGxhY9mBRl1_k8-21" value="&amp;lt;&amp;lt;include&amp;gt;&amp;gt;" style="endArrow=open;endSize=10;dashed=1;html=1;rounded=0;exitX=1;exitY=0.5;exitDx=0;exitDy=0;entryX=0;entryY=0.5;entryDx=0;entryDy=0;" edge="1" parent="1" source="BWtPWIOGxhY9mBRl1_k8-8" target="BWtPWIOGxhY9mBRl1_k8-14">
          <mxGeometry x="0.0191" y="-11" width="160" relative="1" as="geometry">
            <mxPoint x="270" y="490" as="sourcePoint" />
            <mxPoint x="430" y="490" as="targetPoint" />
            <mxPoint as="offset" />
          </mxGeometry>
        </mxCell>
        <mxCell id="BWtPWIOGxhY9mBRl1_k8-22" value="" style="endArrow=none;endFill=0;endSize=12;html=1;rounded=0;entryX=0;entryY=0.5;entryDx=0;entryDy=0;" edge="1" parent="1" source="BWtPWIOGxhY9mBRl1_k8-2" target="BWtPWIOGxhY9mBRl1_k8-9">
          <mxGeometry width="160" relative="1" as="geometry">
            <mxPoint x="420" y="523" as="sourcePoint" />
            <mxPoint x="580" y="523" as="targetPoint" />
          </mxGeometry>
        </mxCell>
        <mxCell id="BWtPWIOGxhY9mBRl1_k8-23" value="&amp;lt;&amp;lt;include&amp;gt;&amp;gt;" style="endArrow=open;endSize=10;dashed=1;html=1;rounded=0;exitX=1;exitY=0.5;exitDx=0;exitDy=0;entryX=0;entryY=0.5;entryDx=0;entryDy=0;" edge="1" parent="1" source="BWtPWIOGxhY9mBRl1_k8-9" target="BWtPWIOGxhY9mBRl1_k8-10">
          <mxGeometry x="-0.0805" y="14" width="160" relative="1" as="geometry">
            <mxPoint x="420" y="523" as="sourcePoint" />
            <mxPoint x="580" y="523" as="targetPoint" />
            <mxPoint as="offset" />
          </mxGeometry>
        </mxCell>
        <mxCell id="BWtPWIOGxhY9mBRl1_k8-24" value="&amp;lt;&amp;lt;include&amp;gt;&amp;gt;" style="endArrow=open;endSize=10;dashed=1;html=1;rounded=0;exitX=1;exitY=0.5;exitDx=0;exitDy=0;entryX=0;entryY=0.5;entryDx=0;entryDy=0;" edge="1" parent="1" source="BWtPWIOGxhY9mBRl1_k8-9" target="BWtPWIOGxhY9mBRl1_k8-11">
          <mxGeometry x="-0.044" y="-17" width="160" relative="1" as="geometry">
            <mxPoint x="420" y="523" as="sourcePoint" />
            <mxPoint x="580" y="523" as="targetPoint" />
            <mxPoint as="offset" />
          </mxGeometry>
        </mxCell>
        <mxCell id="BWtPWIOGxhY9mBRl1_k8-25" value="" style="endArrow=none;endFill=0;endSize=12;html=1;rounded=0;entryX=1;entryY=0.5;entryDx=0;entryDy=0;" edge="1" parent="1" source="BWtPWIOGxhY9mBRl1_k8-4" target="BWtPWIOGxhY9mBRl1_k8-12">
          <mxGeometry width="160" relative="1" as="geometry">
            <mxPoint x="790" y="693" as="sourcePoint" />
            <mxPoint x="580" y="523" as="targetPoint" />
          </mxGeometry>
        </mxCell>
        <mxCell id="BWtPWIOGxhY9mBRl1_k8-26" value="&amp;lt;&amp;lt;include&amp;gt;&amp;gt;" style="endArrow=open;endSize=10;dashed=1;html=1;rounded=0;exitX=0;exitY=0.5;exitDx=0;exitDy=0;entryX=1;entryY=0.5;entryDx=0;entryDy=0;" edge="1" parent="1" source="BWtPWIOGxhY9mBRl1_k8-12" target="BWtPWIOGxhY9mBRl1_k8-10">
          <mxGeometry x="-0.0882" y="-21" width="160" relative="1" as="geometry">
            <mxPoint x="420" y="523" as="sourcePoint" />
            <mxPoint x="580" y="523" as="targetPoint" />
            <mxPoint as="offset" />
          </mxGeometry>
        </mxCell>
        <mxCell id="BWtPWIOGxhY9mBRl1_k8-27" value="&amp;lt;&amp;lt;include&amp;gt;&amp;gt;" style="endArrow=open;endSize=10;dashed=1;html=1;rounded=0;exitX=0;exitY=0.5;exitDx=0;exitDy=0;entryX=1;entryY=0.5;entryDx=0;entryDy=0;" edge="1" parent="1" source="BWtPWIOGxhY9mBRl1_k8-12" target="BWtPWIOGxhY9mBRl1_k8-11">
          <mxGeometry x="-0.0498" y="19" width="160" relative="1" as="geometry">
            <mxPoint x="420" y="523" as="sourcePoint" />
            <mxPoint x="580" y="523" as="targetPoint" />
            <mxPoint as="offset" />
          </mxGeometry>
        </mxCell>
        <mxCell id="BWtPWIOGxhY9mBRl1_k8-28" value="&amp;lt;&amp;lt;extend&amp;gt;&amp;gt;" style="endArrow=open;endSize=10;dashed=1;html=1;rounded=0;exitX=0.5;exitY=1;exitDx=0;exitDy=0;" edge="1" parent="1" source="BWtPWIOGxhY9mBRl1_k8-7" target="BWtPWIOGxhY9mBRl1_k8-5">
          <mxGeometry x="-0.1111" y="37" width="160" relative="1" as="geometry">
            <mxPoint x="420" y="490" as="sourcePoint" />
            <mxPoint x="580" y="490" as="targetPoint" />
            <mxPoint as="offset" />
          </mxGeometry>
        </mxCell>
        <mxCell id="BWtPWIOGxhY9mBRl1_k8-29" value="" style="endArrow=none;endFill=0;endSize=12;html=1;rounded=0;entryX=0;entryY=0.5;entryDx=0;entryDy=0;" edge="1" parent="1" source="BWtPWIOGxhY9mBRl1_k8-3" target="BWtPWIOGxhY9mBRl1_k8-7">
          <mxGeometry width="160" relative="1" as="geometry">
            <mxPoint x="420" y="490" as="sourcePoint" />
            <mxPoint x="580" y="490" as="targetPoint" />
          </mxGeometry>
        </mxCell>
        <mxCell id="BWtPWIOGxhY9mBRl1_k8-31" value="" style="endArrow=block;endFill=0;endSize=10;html=1;rounded=0;" edge="1" parent="1">
          <mxGeometry width="160" relative="1" as="geometry">
            <mxPoint x="105" y="640" as="sourcePoint" />
            <mxPoint x="105" y="530" as="targetPoint" />
          </mxGeometry>
        </mxCell>
        <mxCell id="BWtPWIOGxhY9mBRl1_k8-32" value="" style="endArrow=block;endFill=0;endSize=10;html=1;rounded=0;" edge="1" parent="1">
          <mxGeometry width="160" relative="1" as="geometry">
            <mxPoint x="104.58" y="370" as="sourcePoint" />
            <mxPoint x="105" y="430" as="targetPoint" />
          </mxGeometry>
        </mxCell>
        <mxCell id="BWtPWIOGxhY9mBRl1_k8-35" style="edgeStyle=orthogonalEdgeStyle;rounded=0;orthogonalLoop=1;jettySize=auto;html=1;endArrow=block;endFill=0;endSize=10;" edge="1" parent="1">
          <mxGeometry relative="1" as="geometry">
            <mxPoint x="827" y="710" as="sourcePoint" />
            <mxPoint x="90" y="469" as="targetPoint" />
            <Array as="points">
              <mxPoint x="827" y="770" />
              <mxPoint x="40" y="770" />
              <mxPoint x="40" y="469" />
            </Array>
          </mxGeometry>
        </mxCell>
        <mxCell id="BWtPWIOGxhY9mBRl1_k8-38" value="" style="html=1;whiteSpace=wrap;fillColor=none;shadow=1;" vertex="1" parent="1">
          <mxGeometry x="144" y="270" width="630" height="490" as="geometry" />
        </mxCell>
        <mxCell id="BWtPWIOGxhY9mBRl1_k8-39" value="Dietary system" style="text;html=1;align=center;verticalAlign=middle;whiteSpace=wrap;rounded=0;" vertex="1" parent="1">
          <mxGeometry x="411" y="270" width="96" height="30" as="geometry" />
        </mxCell>
        <mxCell id="BWtPWIOGxhY9mBRl1_k8-40" value="View diet plan" style="ellipse;whiteSpace=wrap;html=1;" vertex="1" parent="1">
          <mxGeometry x="425" y="570" width="130" height="40" as="geometry" />
        </mxCell>
        <mxCell id="BWtPWIOGxhY9mBRl1_k8-41" value="&amp;lt;&amp;lt;include&amp;gt;&amp;gt;" style="endArrow=open;endSize=10;dashed=1;html=1;rounded=0;exitX=1;exitY=0.5;exitDx=0;exitDy=0;entryX=0;entryY=0.5;entryDx=0;entryDy=0;" edge="1" parent="1" source="BWtPWIOGxhY9mBRl1_k8-8" target="BWtPWIOGxhY9mBRl1_k8-40">
          <mxGeometry x="0.0191" y="-11" width="160" relative="1" as="geometry">
            <mxPoint x="303" y="549" as="sourcePoint" />
            <mxPoint x="435" y="540" as="targetPoint" />
            <mxPoint as="offset" />
          </mxGeometry>
        </mxCell>
      </root>
    </mxGraphModel>
  </diagram>
</mxfile>
